<?xml version="1.0" encoding="UTF-8" standalone="no"?>
<svg
   id="svg1"
   sodipodi:docname="save.svg"
   viewBox="0 0 60 60"
   sodipodi:version="0.32"
   _SVGFile__filename="oldscale/devices/3floppy_mount.svg"
   version="1.0"
   y="0"
   x="0"
   inkscape:version="1.4 (e7c3feb100, 2024-10-09)"
   xmlns:inkscape="http://www.inkscape.org/namespaces/inkscape"
   xmlns:sodipodi="http://sodipodi.sourceforge.net/DTD/sodipodi-0.dtd"
   xmlns="http://www.w3.org/2000/svg"
   xmlns:svg="http://www.w3.org/2000/svg"
   xmlns:rdf="http://www.w3.org/1999/02/22-rdf-syntax-ns#"
   xmlns:cc="http://creativecommons.org/ns#"
   xmlns:dc="http://purl.org/dc/elements/1.1/">
  <sodipodi:namedview
     id="base"
     bordercolor="#666666"
     inkscape:pageshadow="2"
     inkscape:window-y="0"
     pagecolor="#ffffff"
     inkscape:window-height="1142"
     inkscape:zoom="7.8862221"
     inkscape:window-x="0"
     borderopacity="1.0"
     inkscape:current-layer="svg1"
     inkscape:cx="28.150361"
     inkscape:cy="31.003438"
     inkscape:window-width="1828"
     inkscape:pageopacity="0.0000000"
     inkscape:showpageshadow="2"
     inkscape:pagecheckerboard="0"
     inkscape:deskcolor="#d1d1d1"
     inkscape:window-maximized="0" />
  <defs
     id="defs1" />
  <path
     id="path655"
     style="fill:none;fill-rule:evenodd;stroke:#ffffff;stroke-width:2.50004;stroke-linecap:round;stroke-linejoin:round"
     d="M 41.368677,4.8106842 V 17.767319 c 0,1.323843 -1.162399,2.389375 -2.60757,2.389375 H 21.239025 c -1.445171,0 -2.608548,-1.065532 -2.608548,-2.389375 V 4.8106842" />
  <path
     id="rect656"
     style="fill:#ffffff;fill-rule:evenodd;stroke-width:1.22306;stroke-linecap:round;stroke-linejoin:round"
     d="m 36.47447,8.0607038 c 0.758299,0 1.36983,0.6105528 1.36983,1.3689494 v 6.1085608 c 0,0.758299 -0.611531,1.368852 -1.36983,1.368852 h -3.706369 c -0.759277,0 -1.36983,-0.610553 -1.36983,-1.368852 V 9.4296532 c 0,-0.7583966 0.610553,-1.3689494 1.36983,-1.3689494 z" />
  <path
     id="path659"
     style="stroke-linejoin:round;stroke:#ffffff;stroke-linecap:round;stroke-width:3.0148;fill:none"
     transform="matrix(1.0365 0 0 1.0365 -.99914 -1.5984)"
     d="m8.375 6.0625c-1.108 0-2 0.892-2 2v44.844c0 1.108 0.892 2 2 2h43.063c1.108 0 2-0.892 2-2v-40.25l-6.626-6.5935h-38.437z" />
  <path
     id="rect731"
     sodipodi:nodetypes="ccccccccc"
     style="stroke-linejoin:round;fill-rule:evenodd;stroke-linecap:round;stroke-width:1.25;fill:#ffffff"
     transform="matrix(.97845 0 0 .97845 .43127 .25189)"
     d="m12.659 25.288c-1.128 0-2.035 0.908-2.035 2.035v21.987c0 1.127 0.907 2.035 2.035 2.035h35.122c1.127 0 2.035-0.908 2.035-2.035v-21.987c0-1.127-0.908-2.035-2.035-2.035h-35.122z" />
  <metadata
     id="metadata1">
    <rdf:RDF>
      <cc:Work>
        <dc:format>image/svg+xml</dc:format>
        <dc:type
           rdf:resource="http://purl.org/dc/dcmitype/StillImage" />
        <cc:license
           rdf:resource="http://creativecommons.org/licenses/publicdomain/" />
        <dc:publisher>
          <cc:Agent
             rdf:about="http://openclipart.org/">
            <dc:title>Openclipart</dc:title>
          </cc:Agent>
        </dc:publisher>
      </cc:Work>
      <cc:License
         rdf:about="http://creativecommons.org/licenses/publicdomain/">
        <cc:permits
           rdf:resource="http://creativecommons.org/ns#Reproduction" />
        <cc:permits
           rdf:resource="http://creativecommons.org/ns#Distribution" />
        <cc:permits
           rdf:resource="http://creativecommons.org/ns#DerivativeWorks" />
      </cc:License>
    </rdf:RDF>
  </metadata>
</svg>
